<svg xmlns="http://www.w3.org/2000/svg" width="31" height="31" viewBox="0 0 31 31" fill="none">
<path d="M15.4358 20.8842C15.4358 21.0323 15.5503 21.1536 15.6884 21.1536H21.9191C22.0572 21.1536 22.1717 21.0323 22.1717 20.8842V19.2675C22.1717 19.1193 22.0572 18.9981 21.9191 18.9981H15.6884C15.5503 18.9981 15.4358 19.1193 15.4358 19.2675V20.8842ZM8.87156 21.0896L15.3381 15.6671C15.4661 15.5594 15.4661 15.3607 15.3381 15.2529L8.87156 9.83379C8.83253 9.80059 8.78478 9.7793 8.734 9.77243C8.68322 9.76556 8.63154 9.7734 8.58508 9.79503C8.53863 9.81667 8.49936 9.85117 8.47193 9.89446C8.4445 9.93775 8.43008 9.98799 8.43036 10.0392V12.151C8.43036 12.2318 8.46404 12.3059 8.52803 12.3564L12.2261 15.4617L8.52803 18.567C8.49792 18.5922 8.47361 18.6236 8.45676 18.659C8.4399 18.6945 8.4309 18.7332 8.43036 18.7724V20.8842C8.43036 21.1132 8.69643 21.2378 8.87156 21.0896ZM27.6952 1.98975H2.90686C2.31072 1.98975 1.8291 2.47137 1.8291 3.0675V27.8559C1.8291 28.452 2.31072 28.9336 2.90686 28.9336H27.6952C28.2914 28.9336 28.773 28.452 28.773 27.8559V3.0675C28.773 2.47137 28.2914 1.98975 27.6952 1.98975ZM26.3481 26.5087H4.25405V4.4147H26.3481V26.5087Z" fill="#333333"/>
</svg>