<svg xmlns="http://www.w3.org/2000/svg" width="33" height="37" viewBox="0 0 33 37" fill="none">
<path d="M33 10.6481V18.3594C33 19.1617 32.563 19.9031 31.8537 20.3043L17.6463 28.3397C16.937 28.7408 16.063 28.7408 15.3537 28.3397L1.14629 20.3043C0.436963 19.9031 0 19.1617 0 18.3594V10.6481C0 9.84571 0.436962 9.10431 1.14629 8.70313L15.3537 0.667758C16.063 0.266581 16.937 0.266581 17.6463 0.667758L31.8537 8.70313C32.563 9.10431 33 9.84571 33 10.6481Z" fill="#FCDA69"/>
<path d="M0.191048 21.9251C0.126107 21.8884 0.0624123 21.8501 0 21.8103V22.3519C0 23.1543 0.436963 23.8957 1.14629 24.2969L15.3537 32.3322C16.063 32.7334 16.937 32.7334 17.6463 32.3322L24.75 28.3146L31.8537 24.2969C32.563 23.8957 33 23.1543 33 22.3519V21.8103C32.9376 21.8501 32.8739 21.8884 32.809 21.9251L18.6015 29.9604C17.3011 30.6959 15.6989 30.6959 14.3985 29.9604L0.191048 21.9251Z" fill="#7F85F6"/>
<path d="M0 26.7188V25.8029C0.0624123 25.8426 0.126107 25.8809 0.191048 25.9177L14.3985 33.953C15.6989 34.6885 17.3011 34.6885 18.6015 33.953L32.809 25.9177C32.8739 25.8809 32.9376 25.8426 33 25.8029V26.7188C33 27.5212 32.563 28.2626 31.8537 28.6637L17.6463 36.6991C16.937 37.1003 16.063 37.1003 15.3537 36.6991L1.14629 28.6637C0.436963 28.2626 0 27.5212 0 26.7188Z" fill="#1BB978"/>
</svg>